<svg xmlns="http://www.w3.org/2000/svg" viewBox="0 0 1000 625"><defs><linearGradient id="sky" x2="0" y2="1"><stop stop-color="#d6dec0"/><stop offset="1" stop-color="#f2ecd9"/></linearGradient></defs><rect width="1000" height="625" fill="url(#sky)"/><circle cx="654" cy="246" r="111" fill="#e5aa68"/><path d="M0 432L262 113 452 386 612 183 1000 484V625H0Z" fill="#8b9d72"/><path d="M0 513L238 249 432 541 613 354 1000 595V625H0Z" fill="#536b48"/><path d="M0 546Q242 418 490 544T1000 523V625H0Z" fill="#283f32"/><path d="M487 625c62-44 63-94 107-117s40-40 57-70" fill="none" stroke="#e6e3c1" stroke-width="3"/><path d="M133 201h34M150 184v34" stroke="#fff" stroke-opacity=".6"/><text x="60" y="76" fill="#435941" font-family="monospace" font-size="12" letter-spacing="3">TAKE THE LONG WAY HOME.</text></svg>